<svg width="84" height="14" viewBox="0 0 84 14" fill="none" xmlns="http://www.w3.org/2000/svg">
<path d="M5.958 13.216C5.226 13.216 4.554 13.072 3.942 12.784C3.33 12.496 2.802 12.088 2.358 11.56C1.926 11.02 1.59 10.372 1.35 9.616C1.11 8.848 0.99 7.99 0.99 7.042C0.99 6.106 1.11 5.26 1.35 4.504C1.602 3.748 1.95 3.106 2.394 2.578C2.838 2.038 3.366 1.63 3.978 1.354C4.602 1.066 5.292 0.922 6.048 0.922C6.744 0.922 7.356 1.066 7.884 1.354C8.412 1.642 8.832 1.972 9.144 2.344L8.658 2.902C8.334 2.53 7.956 2.236 7.524 2.02C7.092 1.792 6.606 1.678 6.066 1.678C5.418 1.678 4.83 1.804 4.302 2.056C3.786 2.308 3.342 2.668 2.97 3.136C2.61 3.592 2.334 4.15 2.142 4.81C1.95 5.47 1.854 6.214 1.854 7.042C1.854 7.87 1.95 8.62 2.142 9.292C2.334 9.952 2.61 10.516 2.97 10.984C3.33 11.452 3.762 11.818 4.266 12.082C4.782 12.334 5.358 12.46 5.994 12.46C6.606 12.46 7.152 12.34 7.632 12.1C8.112 11.848 8.568 11.482 9 11.002L9.486 11.524C9.03 12.052 8.52 12.466 7.956 12.766C7.392 13.066 6.726 13.216 5.958 13.216ZM14.3902 13V2.992H10.9882V1.228H19.8802V2.992H16.4782V13H14.3902ZM22.2003 13V1.228H25.9083C26.5563 1.228 27.1563 1.288 27.7083 1.408C28.2723 1.528 28.7583 1.732 29.1663 2.02C29.5743 2.308 29.8923 2.686 30.1203 3.154C30.3483 3.61 30.4623 4.18 30.4623 4.864C30.4623 5.512 30.3483 6.076 30.1203 6.556C29.8923 7.036 29.5743 7.438 29.1663 7.762C28.7703 8.074 28.2963 8.308 27.7443 8.464C27.2043 8.608 26.6163 8.68 25.9803 8.68H24.2883V13H22.2003ZM24.2883 7.006H25.8183C27.5463 7.006 28.4103 6.292 28.4103 4.864C28.4103 4.12 28.1823 3.61 27.7263 3.334C27.2823 3.046 26.6223 2.902 25.7463 2.902H24.2883V7.006ZM33.0369 13V1.228H40.1289V2.992H35.1249V5.998H39.3549V7.762H35.1249V11.236H40.3089V13H33.0369ZM43.0824 13V1.228H45.1704V6.016H46.8444L48.4284 3.172C48.6564 2.752 48.8784 2.404 49.0944 2.128C49.3224 1.84 49.5444 1.618 49.7604 1.462C49.9884 1.294 50.2284 1.18 50.4804 1.12C50.7324 1.048 51.0084 1.012 51.3084 1.012C51.4404 1.012 51.5784 1.024 51.7224 1.048C51.8784 1.06 52.0104 1.096 52.1184 1.156L51.7764 3.064C51.6804 3.028 51.5904 3.01 51.5064 3.01C51.4344 2.998 51.3684 2.992 51.3084 2.992C51.1764 2.992 51.0504 3.01 50.9304 3.046C50.8224 3.082 50.7144 3.148 50.6064 3.244C50.4984 3.328 50.3844 3.454 50.2644 3.622C50.1444 3.778 50.0124 3.988 49.8684 4.252L48.4824 6.718L52.4064 13H50.1924L46.8264 7.708H45.1704V13H43.0824ZM58.627 13.216C57.919 13.216 57.265 13.072 56.665 12.784C56.065 12.484 55.549 12.064 55.117 11.524C54.685 10.984 54.349 10.336 54.109 9.58C53.869 8.812 53.749 7.96 53.749 7.024C53.749 6.088 53.869 5.248 54.109 4.504C54.349 3.748 54.685 3.106 55.117 2.578C55.549 2.038 56.065 1.63 56.665 1.354C57.265 1.066 57.919 0.922 58.627 0.922C59.347 0.922 60.007 1.066 60.607 1.354C61.207 1.63 61.723 2.038 62.155 2.578C62.587 3.106 62.923 3.748 63.163 4.504C63.403 5.248 63.523 6.088 63.523 7.024C63.523 7.96 63.403 8.812 63.163 9.58C62.923 10.336 62.587 10.984 62.155 11.524C61.723 12.064 61.207 12.484 60.607 12.784C60.007 13.072 59.347 13.216 58.627 13.216ZM58.627 12.46C59.227 12.46 59.773 12.334 60.265 12.082C60.757 11.818 61.177 11.452 61.525 10.984C61.885 10.504 62.161 9.934 62.353 9.274C62.545 8.602 62.641 7.852 62.641 7.024C62.641 6.208 62.545 5.47 62.353 4.81C62.161 4.15 61.885 3.592 61.525 3.136C61.177 2.668 60.757 2.308 60.265 2.056C59.773 1.804 59.227 1.678 58.627 1.678C58.027 1.678 57.475 1.804 56.971 2.056C56.479 2.308 56.059 2.668 55.711 3.136C55.363 3.592 55.093 4.15 54.901 4.81C54.709 5.47 54.613 6.208 54.613 7.024C54.613 7.852 54.709 8.602 54.901 9.274C55.093 9.934 55.363 10.504 55.711 10.984C56.059 11.452 56.479 11.818 56.971 12.082C57.475 12.334 58.027 12.46 58.627 12.46ZM69.4437 13.216C68.5437 13.216 67.7637 13.078 67.1037 12.802C66.4557 12.514 65.8377 12.058 65.2497 11.434L65.7717 10.876C66.0597 11.164 66.3357 11.41 66.5997 11.614C66.8757 11.818 67.1577 11.986 67.4457 12.118C67.7457 12.238 68.0577 12.328 68.3817 12.388C68.7057 12.436 69.0597 12.46 69.4437 12.46C69.8757 12.46 70.2837 12.4 70.6677 12.28C71.0637 12.16 71.4057 11.986 71.6937 11.758C71.9937 11.518 72.2277 11.23 72.3957 10.894C72.5757 10.546 72.6657 10.15 72.6657 9.706C72.6657 8.794 72.3297 8.122 71.6577 7.69C70.9857 7.258 70.0557 7.042 68.8677 7.042H67.6617V6.358H68.5077C69.7437 6.358 70.6377 6.154 71.1897 5.746C71.7537 5.338 72.0357 4.726 72.0357 3.91C72.0357 3.55 71.9637 3.232 71.8197 2.956C71.6877 2.68 71.5017 2.446 71.2617 2.254C71.0217 2.062 70.7337 1.918 70.3977 1.822C70.0737 1.726 69.7197 1.678 69.3357 1.678C68.7357 1.678 68.1717 1.792 67.6437 2.02C67.1277 2.236 66.6957 2.524 66.3477 2.884L65.8797 2.326C66.2397 1.942 66.7257 1.612 67.3377 1.336C67.9497 1.06 68.6157 0.922 69.3357 0.922C69.8157 0.922 70.2717 0.988 70.7037 1.12C71.1357 1.252 71.5077 1.444 71.8197 1.696C72.1317 1.948 72.3777 2.26 72.5577 2.632C72.7497 2.992 72.8457 3.406 72.8457 3.874C72.8457 4.534 72.6777 5.11 72.3417 5.602C72.0177 6.082 71.5497 6.418 70.9377 6.61V6.682C71.6697 6.814 72.2757 7.138 72.7557 7.654C73.2477 8.158 73.4937 8.842 73.4937 9.706C73.4937 10.246 73.3857 10.738 73.1697 11.182C72.9537 11.614 72.6597 11.98 72.2877 12.28C71.9277 12.58 71.5017 12.814 71.0097 12.982C70.5177 13.138 69.9957 13.216 69.4437 13.216ZM78.027 6.016L77.271 8.23H81.483L80.727 6.016C80.487 5.308 80.259 4.63 80.043 3.982C79.827 3.334 79.617 2.644 79.413 1.912H79.341C79.137 2.644 78.927 3.334 78.711 3.982C78.495 4.63 78.267 5.308 78.027 6.016ZM74.787 13L78.963 1.138H79.791L83.967 13H83.103L81.717 8.932H77.019L75.615 13H74.787Z" fill="black"/>
</svg>
